C:\Users\u0088756\Documents\documenten\software\SoftwareProjects\DC_TrackingSimulation\Data\Patient20\InputData\GRF_data.mot
nRows=25
nColumns=19

name C:\Users\u0088756\Documents\documenten\software\SoftwareProjects\DC_TrackingSimulation\Data\Patient20\InputData\GRF_data.mot
datacolumns 19
datarows 25
range 0.0000000000 0.0240000000
endheader
time	ground_force_vx	ground_force_vy	ground_force_vz	ground_force_px	ground_force_py	ground_force_pz	1_ground_force_vx	1_ground_force_vy	1_ground_force_vz	1_ground_force_px	1_ground_force_py	1_ground_force_pz	ground_torque_x	ground_torque_y	ground_torque_z	1_ground_torque_x	1_ground_torque_y	1_ground_torque_z
        0.0000000000	        0.0000000000	        0.0000000000	        0.0000000000	        0.0057574717	        0.0004262935	        0.0003480242	       83.6210224242	      663.8430320588	      -53.7010383124	        0.1233819653	        0.0004262935	        0.1035013336	        0.0000000000	        0.0000000000	        0.0000000000	        0.0000000000	        8.3032356149	        0.0000000000	
        0.0010000000	        7.1128158019	       52.4345007205	       -3.8977159446	        0.4778322438	        0.0004258374	       -0.0521468858	       84.2775604596	      663.5803199504	      -53.5769207326	        0.1236465692	        0.0004258374	        0.1034385687	        0.0000000000	       -0.1360895013	        0.0000000000	        0.0000000000	        8.2893972559	        0.0000000000	
        0.0020000000	        6.8087569020	       55.2913724320	       -4.0674520878	        0.4814171305	        0.0004253814	       -0.0529683570	       84.9291685412	      663.2453597157	      -53.4457981405	        0.1239158259	        0.0004253814	        0.1033752708	        0.0000000000	       -0.1113463806	        0.0000000000	        0.0000000000	        8.2743061470	        0.0000000000	
        0.0030000000	        6.4926397901	       58.2089837604	       -4.2372768593	        0.4848350889	        0.0004249253	       -0.0537272993	       85.5753428700	      662.8368589120	      -53.3076463926	        0.1241897944	        0.0004249253	        0.1033114449	        0.0000000000	       -0.0868368790	        0.0000000000	        0.0000000000	        8.2579465032	        0.0000000000	
        0.0040000000	        6.1643656857	       61.1868075146	       -4.4069899697	        0.4881023099	        0.0004244692	       -0.0544305137	       86.2155739747	      662.3535544994	      -53.1624444958	        0.1244685264	        0.0004244692	        0.1032470959	        0.0000000000	       -0.0624759996	        0.0000000000	        0.0000000000	        8.2403033659	        0.0000000000	
        0.0050000000	        5.8238447174	       64.2242693705	       -4.5763866635	        0.4912327998	        0.0004240132	       -0.0550838874	       86.8493471862	      661.7942143983	      -53.0101746652	        0.1247520659	        0.0004240132	        0.1031822286	        0.0000000000	       -0.0381895425	        0.0000000000	        0.0000000000	        8.2213626207	        0.0000000000	
        0.0060000000	        5.4709961735	       67.3207483885	       -4.7452579111	        0.4942390377	        0.0004237462	       -0.0556926806	       87.4761431241	      661.1576390349	      -52.8508223831	        0.1250407545	        0.0004237462	        0.1031167091	        0.0000000000	       -0.0139124914	        0.0000000000	        0.0000000000	        8.2011110118	        0.0000000000	
        0.0070000000	        5.1057487434	       70.4755776031	       -4.9133906120	        0.4971313463	        0.0004234793	       -0.0562612305	       88.0954381931	      660.4426628732	      -52.6843764605	        0.1253343151	        0.0004234793	        0.1030506805	        0.0000000000	        0.0104122931	        0.0000000000	        0.0000000000	        8.1795361524	        0.0000000000	
        0.0080000000	        4.7280407480	       73.6880446855	       -5.0805678076	        0.4999190420	        0.0004232123	       -0.0567934651	       88.7067050899	      659.6481559319	      -52.5108290982	        0.1256327683	        0.0004232123	        0.1029841473	        0.0000000000	        0.0348351375	        0.0000000000	        0.0000000000	        8.1566265322	        0.0000000000	
        0.0090000000	        4.3378203594	       76.9573926789	       -5.2465689047	        0.5026103226	        0.0004229454	       -0.0572928459	       89.3094133192	      658.7730252838	      -52.3301759508	        0.1259361268	        0.0004229454	        0.1029171139	        0.0000000000	        0.0594004274	        0.0000000000	        0.0000000000	        8.1323715218	        0.0000000000	
        0.0100000000	        3.9350458089	       80.2828208024	       -5.4111699090	        0.5052124279	        0.0004226784	       -0.0577624345	       89.9030297193	      657.8162165366	      -52.1424161903	        0.1262443954	        0.0004226784	        0.1028495847	        0.0000000000	        0.0841473280	        0.0000000000	        0.0000000000	        8.1067613741	        0.0000000000	
        0.0110000000	        3.5196855825	       83.6634853261	       -5.5741436682	        0.5077321394	        0.0004226168	       -0.0582051520	       90.4870189964	      656.7767152925	      -51.9475525703	        0.1265579377	        0.0004226168	        0.1027813605	        0.0000000000	        0.1091103806	        0.0000000000	        0.0000000000	        8.0797872240	        0.0000000000	
        0.0120000000	        3.0917186039	       87.0985005114	       -5.7352601243	        0.5101747921	        0.0004225551	       -0.0586232155	       91.0608442668	      655.6535485851	      -51.7455914906	        0.1268763756	        0.0004225551	        0.1027126488	        0.0000000000	        0.1343200016	        0.0000000000	        0.0000000000	        8.0514410861	        0.0000000000	
        0.0130000000	        2.6511344041	       90.5869396181	       -5.8942865753	        0.5125454693	        0.0004224934	       -0.0590187877	       91.6239676072	      654.4457862917	      -51.5365430613	        0.1271996902	        0.0004224934	        0.1026434537	        0.0000000000	        0.1598029008	        0.0000000000	        0.0000000000	        8.0217158512	        0.0000000000	
        0.0140000000	        2.1979332771	       94.1278359751	       -6.0509879457	        0.5148487153	        0.0004224318	       -0.0593938067	       92.1758506126	      653.1525425187	      -51.3204211652	        0.1275278544	        0.0004224318	        0.1025737792	        0.0000000000	        0.1855824343	        0.0000000000	        0.0000000000	        7.9906052824	        0.0000000000	
        0.0150000000	        1.7321264220	       97.7201841110	       -6.2051270641	        0.5170886036	        0.0004223701	       -0.0597500142	       92.7159549612	      651.7729769590	      -51.0972435199	        0.1278608334	        0.0004223701	        0.1025036293	        0.0000000000	        0.2116789041	        0.0000000000	        0.0000000000	        7.9581040101	        0.0000000000	
        0.0160000000	        1.2537360694	      101.3629409452	       -6.3564649505	        0.5192691917	        0.0004225104	       -0.0600892832	       93.2437429861	      650.3062962177	      -50.8670317373	        0.1281989812	        0.0004225104	        0.1024327044	        0.0000000000	        0.2381098137	        0.0000000000	        0.0000000000	        7.9242075280	        0.0000000000	
        0.0170000000	        0.7627955938	      105.0550270338	       -6.5047611094	        0.5213933801	        0.0004226506	       -0.0604127283	       93.7586782533	      648.7517551062	      -50.6298113807	        0.1285418503	        0.0004226506	        0.1023613117	        0.0000000000	        0.2648900874	        0.0000000000	        0.0000000000	        7.8889121892	        0.0000000000	
        0.0180000000	        0.2593496101	      108.7953278704	       -6.6497738305	        0.5234641460	        0.0004227908	       -0.0607216336	       94.2602261463	      647.1086579006	      -50.3856120193	        0.1288893822	        0.0004227908	        0.1022894551	        0.0000000000	        0.2920322585	        0.0000000000	        0.0000000000	        7.8522152032	        0.0000000000	
        0.0190000000	       -0.2565459457	      112.5826952359	       -6.7912604962	        0.5254841834	        0.0004229311	       -0.0610171647	       94.7478544554	      645.3763595641	      -50.1344672782	        0.1292415109	        0.0004229311	        0.1022171380	        0.0000000000	        0.3195466328	        0.0000000000	        0.0000000000	        7.8141146344	        0.0000000000	
        0.0200000000	       -0.7848237523	      116.4159485975	       -6.9289778948	        0.5274559354	        0.0004230713	       -0.0613003819	       95.2210339728	      643.5542669298	      -49.8764148860	        0.1295981626	        0.0004230713	        0.1021443642	        0.0000000000	        0.3474414306	        0.0000000000	        0.0000000000	        7.7746094020	        0.0000000000	
        0.0210000000	       -1.3254050554	      120.2938765508	       -7.0626825389	        0.5293820208	        0.0004233653	       -0.0615727022	       95.6792390928	      641.6418398430	      -49.6114967161	        0.1299596547	        0.0004233653	        0.1020706868	        0.0000000000	        0.3757229098	        0.0000000000	        0.0000000000	        7.7336992815	        0.0000000000	
        0.0220000000	       -1.8781996370	      124.2152383035	       -7.1921309893	        0.5312640625	        0.0004236594	       -0.0618345580	       96.1219484146	      639.6385922600	      -49.3397588241	        0.1303254998	        0.0004236594	        0.1019965597	        0.0000000000	        0.4043954749	        0.0000000000	        0.0000000000	        7.6913849084	        0.0000000000	
        0.0230000000	       -2.4431058026	      128.1787651973	       -7.3170801830	        0.5331039049	        0.0004239534	       -0.0620867569	       96.5486453505	      637.5440933018	      -49.0612514799	        0.1306956016	        0.0004239534	        0.1019219864	        0.0000000000	        0.4334617718	        0.0000000000	        0.0000000000	        7.6476677831	        0.0000000000	
        0.0240000000	       -3.0200103864	      132.1831622636	       -7.4372877654	        0.5349032345	        0.0004242474	       -0.0623300395	       96.9588187358	      635.3579682606	      -48.7760291931	        0.1310698570	        0.0004242474	        0.1018469703	        0.0000000000	        0.4629227722	        0.0000000000	        0.0000000000	        7.6025502781	        0.0000000000	
